<svg width="350" height="20" viewBox="0 0 350 20" fill="none" xmlns="http://www.w3.org/2000/svg">
<path d="M0 19.6685V0.331491H3.92634L12.6581 13.9779H10.5777L19.1629 0.331491H23.0599L23.1185 19.6685H18.6648L18.6355 6.76796H19.4559L12.5994 17.6243H10.4605L3.45752 6.76796H4.45376V19.6685H0Z" fill="white"/>
<path d="M25.2891 19.6685L34.431 0.331491H39.1192L48.2904 19.6685H43.3092L35.8082 2.59668H37.6834L30.1531 19.6685H25.2891ZM29.86 15.5249L31.12 12.1271H41.6684L42.9576 15.5249H29.86Z" fill="white"/>
<path d="M50.4184 19.6685V0.331491H59.2966C61.1328 0.331491 62.7151 0.616942 64.0434 1.18784C65.3717 1.74033 66.3972 2.54144 67.12 3.59116C67.8427 4.64088 68.2041 5.89319 68.2041 7.34807C68.2041 8.78453 67.8427 10.0276 67.12 11.0773C66.3972 12.1087 65.3717 12.9006 64.0434 13.453C62.7151 14.0055 61.1328 14.2818 59.2966 14.2818H53.0555L55.1652 12.3204V19.6685H50.4184ZM63.4574 19.6685L58.3297 12.6519H63.3988L68.585 19.6685H63.4574ZM55.1652 12.8177L53.0555 10.7182H59.0329C60.498 10.7182 61.5919 10.4236 62.3146 9.83425C63.0374 9.22652 63.3988 8.39779 63.3988 7.34807C63.3988 6.27993 63.0374 5.4512 62.3146 4.86188C61.5919 4.27256 60.498 3.9779 59.0329 3.9779H53.0555L55.1652 1.85083V12.8177Z" fill="white"/>
<path d="M71.965 19.6685V0.331491H76.7117V19.6685H71.965Z" fill="white"/>
<path d="M91.5417 20C89.9204 20 88.4163 19.7514 87.0294 19.2541C85.662 18.7569 84.4704 18.0571 83.4546 17.1547C82.4584 16.2523 81.677 15.1934 81.1105 13.9779C80.5636 12.7624 80.2901 11.4365 80.2901 10C80.2901 8.56354 80.5636 7.23757 81.1105 6.0221C81.677 4.80663 82.4682 3.7477 83.4839 2.8453C84.4997 1.94291 85.6913 1.24309 87.0587 0.745855C88.426 0.248618 89.9106 0 91.5124 0C93.1337 0 94.6183 0.248618 95.9662 0.745855C97.3336 1.24309 98.5154 1.94291 99.5116 2.8453C100.527 3.7477 101.318 4.80663 101.885 6.0221C102.451 7.21915 102.735 8.54512 102.735 10C102.735 11.4365 102.451 12.7716 101.885 14.0055C101.318 15.221 100.527 16.2799 99.5116 17.1823C98.5154 18.0663 97.3336 18.7569 95.9662 19.2541C94.6183 19.7514 93.1435 20 91.5417 20ZM91.5124 16.1878C92.4305 16.1878 93.2705 16.0405 94.0323 15.7459C94.8137 15.4512 95.4974 15.0276 96.0834 14.4751C96.6694 13.9227 97.1187 13.2689 97.4312 12.5138C97.7633 11.7587 97.9293 10.9208 97.9293 10C97.9293 9.07919 97.7633 8.24125 97.4312 7.48619C97.1187 6.73112 96.6694 6.07735 96.0834 5.52486C95.5169 4.97237 94.843 4.5488 94.0616 4.25414C93.2802 3.95948 92.4305 3.81216 91.5124 3.81216C90.5943 3.81216 89.7446 3.95948 88.9632 4.25414C88.2014 4.5488 87.5275 4.97237 86.9415 5.52486C86.3554 6.07735 85.8964 6.73112 85.5643 7.48619C85.2518 8.24125 85.0955 9.07919 85.0955 10C85.0955 10.9024 85.2518 11.7403 85.5643 12.5138C85.8964 13.2689 86.3457 13.9227 86.9122 14.4751C87.4982 15.0276 88.1819 15.4512 88.9632 15.7459C89.7446 16.0405 90.5943 16.1878 91.5124 16.1878Z" fill="white"/>
<path d="M124.504 20C122.883 20 121.388 19.7606 120.021 19.2818C118.673 18.7845 117.491 18.0847 116.476 17.1823C115.479 16.2799 114.698 15.221 114.131 14.0055C113.584 12.7901 113.311 11.4549 113.311 10C113.311 8.54512 113.584 7.20995 114.131 5.99448C114.698 4.77901 115.489 3.72007 116.505 2.81768C117.521 1.91528 118.712 1.22468 120.08 0.745855C121.447 0.248618 122.951 0 124.592 0C126.409 0 128.04 0.285451 129.485 0.856352C130.95 1.42726 132.181 2.25598 133.177 3.34254L130.13 5.99448C129.388 5.25783 128.577 4.71455 127.698 4.36464C126.819 3.99632 125.862 3.81216 124.826 3.81216C123.83 3.81216 122.922 3.95948 122.101 4.25414C121.281 4.5488 120.568 4.97237 119.962 5.52486C119.376 6.07735 118.917 6.73112 118.585 7.48619C118.273 8.24125 118.116 9.07919 118.116 10C118.116 10.9024 118.273 11.7311 118.585 12.4862C118.917 13.2413 119.376 13.9042 119.962 14.4751C120.568 15.0276 121.271 15.4512 122.072 15.7459C122.892 16.0405 123.791 16.1878 124.768 16.1878C125.705 16.1878 126.614 16.0497 127.493 15.7735C128.391 15.4788 129.261 14.9908 130.101 14.3094L132.796 17.5414C131.683 18.3333 130.384 18.9411 128.899 19.3646C127.434 19.7882 125.969 20 124.504 20ZM128.46 16.9613V9.69613H132.796V17.5414L128.46 16.9613Z" fill="white"/>
<path d="M137.206 19.6685V0.331491H146.084C147.92 0.331491 149.502 0.616942 150.831 1.18784C152.159 1.74033 153.184 2.54144 153.907 3.59116C154.63 4.64088 154.991 5.89319 154.991 7.34807C154.991 8.78453 154.63 10.0276 153.907 11.0773C153.184 12.1087 152.159 12.9006 150.831 13.453C149.502 14.0055 147.92 14.2818 146.084 14.2818H139.843L141.952 12.3204V19.6685H137.206ZM150.245 19.6685L145.117 12.6519H150.186L155.372 19.6685H150.245ZM141.952 12.8177L139.843 10.7182H145.82C147.285 10.7182 148.379 10.4236 149.102 9.83425C149.825 9.22652 150.186 8.39779 150.186 7.34807C150.186 6.27993 149.825 5.4512 149.102 4.86188C148.379 4.27256 147.285 3.9779 145.82 3.9779H139.843L141.952 1.85083V12.8177Z" fill="white"/>
<path d="M156.056 19.6685L165.198 0.331491H169.887L179.058 19.6685H174.077L166.575 2.59668H168.451L160.92 19.6685H156.056ZM160.627 15.5249L161.887 12.1271H172.436L173.725 15.5249H160.627Z" fill="white"/>
<path d="M181.186 19.6685V0.331491H185.112L197.213 14.2541H195.309V0.331491H199.997V19.6685H196.1L183.969 5.74586H185.874V19.6685H181.186Z" fill="white"/>
<path d="M214.812 20C213.191 20 211.687 19.7514 210.3 19.2541C208.932 18.7569 207.741 18.0571 206.725 17.1547C205.729 16.2523 204.947 15.1934 204.381 13.9779C203.834 12.7624 203.561 11.4365 203.561 10C203.561 8.56354 203.834 7.23757 204.381 6.0221C204.947 4.80663 205.739 3.7477 206.754 2.8453C207.77 1.94291 208.962 1.24309 210.329 0.745855C211.696 0.248618 213.181 0 214.783 0C216.404 0 217.889 0.248618 219.237 0.745855C220.604 1.24309 221.786 1.94291 222.782 2.8453C223.798 3.7477 224.589 4.80663 225.155 6.0221C225.722 7.21915 226.005 8.54512 226.005 10C226.005 11.4365 225.722 12.7716 225.155 14.0055C224.589 15.221 223.798 16.2799 222.782 17.1823C221.786 18.0663 220.604 18.7569 219.237 19.2541C217.889 19.7514 216.414 20 214.812 20ZM214.783 16.1878C215.701 16.1878 216.541 16.0405 217.303 15.7459C218.084 15.4512 218.768 15.0276 219.354 14.4751C219.94 13.9227 220.389 13.2689 220.702 12.5138C221.034 11.7587 221.2 10.9208 221.2 10C221.2 9.07919 221.034 8.24125 220.702 7.48619C220.389 6.73112 219.94 6.07735 219.354 5.52486C218.787 4.97237 218.113 4.5488 217.332 4.25414C216.551 3.95948 215.701 3.81216 214.783 3.81216C213.865 3.81216 213.015 3.95948 212.234 4.25414C211.472 4.5488 210.798 4.97237 210.212 5.52486C209.626 6.07735 209.167 6.73112 208.835 7.48619C208.522 8.24125 208.366 9.07919 208.366 10C208.366 10.9024 208.522 11.7403 208.835 12.5138C209.167 13.2689 209.616 13.9227 210.183 14.4751C210.769 15.0276 211.452 15.4512 212.234 15.7459C213.015 16.0405 213.865 16.1878 214.783 16.1878Z" fill="white"/>
<path d="M244.317 20C242.813 20 241.475 19.7698 240.303 19.3094C239.131 18.849 238.203 18.2228 237.519 17.4309C236.835 16.639 236.494 15.7274 236.494 14.6961C236.494 13.7385 236.718 12.8821 237.167 12.1271C237.617 11.3536 238.33 10.6354 239.306 9.97238C240.283 9.29098 241.524 8.62799 243.028 7.98343C244.122 7.5046 244.981 7.08103 245.606 6.71271C246.231 6.34438 246.671 5.99447 246.925 5.66298C247.179 5.31308 247.306 4.96317 247.306 4.61326C247.306 4.13444 247.13 3.7477 246.778 3.45304C246.446 3.15838 245.948 3.01105 245.284 3.01105C244.581 3.01105 244.034 3.17679 243.643 3.50829C243.252 3.83978 243.057 4.26335 243.057 4.779C243.057 5.05525 243.116 5.33149 243.233 5.60774C243.35 5.86556 243.575 6.16943 243.907 6.51934C244.239 6.85083 244.708 7.28361 245.313 7.81768L256.125 17.2652L253.635 20L241.709 9.55801C241.025 8.96869 240.478 8.41621 240.068 7.90055C239.658 7.3849 239.355 6.87845 239.16 6.38121C238.984 5.88398 238.896 5.36832 238.896 4.83425C238.896 3.89503 239.16 3.0663 239.687 2.34807C240.215 1.62983 240.957 1.07735 241.914 0.690607C242.871 0.28545 243.995 0.0828719 245.284 0.0828719C246.475 0.0828719 247.501 0.267034 248.36 0.635359C249.239 0.985267 249.923 1.49171 250.411 2.1547C250.919 2.81768 251.173 3.60958 251.173 4.53039C251.173 5.3407 250.958 6.08656 250.529 6.76796C250.099 7.43094 249.425 8.05709 248.507 8.64641C247.608 9.23573 246.427 9.83425 244.961 10.442C243.965 10.8656 243.174 11.2799 242.588 11.6851C242.022 12.0718 241.611 12.4678 241.357 12.8729C241.104 13.2781 240.977 13.7293 240.977 14.2265C240.977 14.6869 241.123 15.1013 241.416 15.4696C241.729 15.8379 242.158 16.1234 242.705 16.326C243.252 16.5285 243.897 16.6298 244.639 16.6298C245.831 16.6298 246.925 16.372 247.921 15.8564C248.917 15.3223 249.757 14.5396 250.441 13.5083C251.144 12.4586 251.642 11.1878 251.935 9.69613L255.598 10.7735C255.188 12.6519 254.455 14.2818 253.4 15.663C252.345 17.0442 251.046 18.1123 249.503 18.8674C247.96 19.6225 246.231 20 244.317 20Z" fill="white"/>
<path d="M274.226 20C272.585 20 271.012 19.7974 269.508 19.3923C268.004 18.9687 266.793 18.4254 265.875 17.7624L267.486 14.3923C268.365 14.9816 269.401 15.4696 270.592 15.8564C271.803 16.2247 273.024 16.4088 274.255 16.4088C275.193 16.4088 275.945 16.326 276.511 16.1602C277.097 15.9761 277.527 15.7274 277.8 15.4144C278.074 15.1013 278.211 14.7422 278.211 14.337C278.211 13.8214 277.996 13.4162 277.566 13.1215C277.136 12.8085 276.57 12.5599 275.867 12.3757C275.163 12.1731 274.382 11.9889 273.522 11.8232C272.682 11.639 271.833 11.418 270.973 11.1602C270.133 10.9024 269.362 10.5709 268.658 10.1657C267.955 9.76059 267.379 9.22652 266.93 8.56354C266.5 7.90055 266.285 7.05341 266.285 6.0221C266.285 4.91713 266.598 3.91344 267.223 3.01105C267.867 2.09024 268.825 1.3628 270.094 0.828728C271.383 0.276243 272.995 0 274.929 0C276.218 0 277.488 0.147329 278.738 0.441988C279.988 0.718231 281.092 1.1418 282.049 1.71271L280.584 5.1105C279.627 4.59484 278.67 4.21731 277.713 3.9779C276.755 3.72007 275.818 3.59116 274.9 3.59116C273.982 3.59116 273.229 3.69245 272.643 3.89503C272.057 4.09761 271.637 4.36464 271.383 4.69613C271.13 5.00921 271.003 5.37753 271.003 5.8011C271.003 6.29834 271.217 6.7035 271.647 7.01657C272.077 7.31123 272.643 7.55064 273.347 7.73481C274.05 7.91897 274.821 8.10313 275.661 8.28729C276.521 8.47145 277.371 8.68324 278.211 8.92265C279.07 9.16206 279.851 9.48435 280.555 9.8895C281.258 10.2947 281.824 10.8287 282.254 11.4917C282.703 12.1547 282.928 12.9926 282.928 14.0055C282.928 15.0921 282.606 16.0866 281.961 16.989C281.317 17.8913 280.35 18.6188 279.06 19.1713C277.791 19.7238 276.179 20 274.226 20Z" fill="white"/>
<path d="M296.134 20C294.513 20 293.008 19.7514 291.622 19.2541C290.254 18.7569 289.063 18.0571 288.047 17.1547C287.051 16.2523 286.269 15.1934 285.703 13.9779C285.156 12.7624 284.882 11.4365 284.882 10C284.882 8.56354 285.156 7.23757 285.703 6.0221C286.269 4.80663 287.06 3.7477 288.076 2.8453C289.092 1.94291 290.284 1.24309 291.651 0.745855C293.018 0.248618 294.503 0 296.105 0C297.726 0 299.211 0.248618 300.558 0.745855C301.926 1.24309 303.108 1.94291 304.104 2.8453C305.12 3.7477 305.911 4.80663 306.477 6.0221C307.044 7.21915 307.327 8.54512 307.327 10C307.327 11.4365 307.044 12.7716 306.477 14.0055C305.911 15.221 305.12 16.2799 304.104 17.1823C303.108 18.0663 301.926 18.7569 300.558 19.2541C299.211 19.7514 297.736 20 296.134 20ZM296.105 16.1878C297.023 16.1878 297.863 16.0405 298.625 15.7459C299.406 15.4512 300.09 15.0276 300.676 14.4751C301.262 13.9227 301.711 13.2689 302.023 12.5138C302.356 11.7587 302.522 10.9208 302.522 10C302.522 9.07919 302.356 8.24125 302.023 7.48619C301.711 6.73112 301.262 6.07735 300.676 5.52486C300.109 4.97237 299.435 4.5488 298.654 4.25414C297.872 3.95948 297.023 3.81216 296.105 3.81216C295.187 3.81216 294.337 3.95948 293.555 4.25414C292.794 4.5488 292.12 4.97237 291.534 5.52486C290.948 6.07735 290.489 6.73112 290.157 7.48619C289.844 8.24125 289.688 9.07919 289.688 10C289.688 10.9024 289.844 11.7403 290.157 12.5138C290.489 13.2689 290.938 13.9227 291.504 14.4751C292.09 15.0276 292.774 15.4512 293.555 15.7459C294.337 16.0405 295.187 16.1878 296.105 16.1878Z" fill="white"/>
<path d="M310.894 19.6685V0.331491H314.821L326.922 14.2541H325.017V0.331491H329.706V19.6685H325.809L313.678 5.74586H315.583V19.6685H310.894Z" fill="white"/>
<path d="M341.298 20C339.657 20 338.084 19.7974 336.58 19.3923C335.076 18.9687 333.865 18.4254 332.947 17.7624L334.558 14.3923C335.437 14.9816 336.473 15.4696 337.664 15.8564C338.875 16.2247 340.096 16.4088 341.327 16.4088C342.265 16.4088 343.017 16.326 343.583 16.1602C344.169 15.9761 344.599 15.7274 344.872 15.4144C345.146 15.1013 345.283 14.7422 345.283 14.337C345.283 13.8214 345.068 13.4162 344.638 13.1215C344.208 12.8085 343.642 12.5599 342.938 12.3757C342.235 12.1731 341.454 11.9889 340.594 11.8232C339.754 11.639 338.905 11.418 338.045 11.1602C337.205 10.9024 336.434 10.5709 335.73 10.1657C335.027 9.76059 334.451 9.22652 334.002 8.56354C333.572 7.90055 333.357 7.05341 333.357 6.0221C333.357 4.91713 333.67 3.91344 334.295 3.01105C334.939 2.09024 335.896 1.3628 337.166 0.828728C338.455 0.276243 340.067 0 342.001 0C343.29 0 344.56 0.147329 345.81 0.441988C347.06 0.718231 348.164 1.1418 349.121 1.71271L347.656 5.1105C346.699 4.59484 345.742 4.21731 344.784 3.9779C343.827 3.72007 342.89 3.59116 341.972 3.59116C341.053 3.59116 340.301 3.69245 339.715 3.89503C339.129 4.09761 338.709 4.36464 338.455 4.69613C338.201 5.00921 338.074 5.37753 338.074 5.8011C338.074 6.29834 338.289 6.7035 338.719 7.01657C339.149 7.31123 339.715 7.55064 340.419 7.73481C341.122 7.91897 341.893 8.10313 342.733 8.28729C343.593 8.47145 344.443 8.68324 345.283 8.92265C346.142 9.16206 346.923 9.48435 347.627 9.8895C348.33 10.2947 348.896 10.8287 349.326 11.4917C349.775 12.1547 350 12.9926 350 14.0055C350 15.0921 349.678 16.0866 349.033 16.989C348.388 17.8913 347.422 18.6188 346.132 19.1713C344.863 19.7238 343.251 20 341.298 20Z" fill="white"/>
</svg>
